<svg id="Ñëîé_3" data-name="Ñëîé 3" xmlns="http://www.w3.org/2000/svg" viewBox="0 0 48 48"><defs><style>.cls-1{fill:#fea92a;}.cls-2{fill:#17144b;}</style></defs><rect class="cls-1" width="48" height="48" rx="24"/><path class="cls-2" d="M-822.28,622.36c-.36-.18-.75-.39-1.16-.13s-.37.75-.34,1.2c.08.9.14,1.81.21,2.72a7.43,7.43,0,0,1-2.93,6.6c-5.86,5.06-5.77,12-1.53,17.2.75.92,1,.93,1.9.12,2.37-2.25,4.73-4.53,7.11-6.77C-813.15,637.76-812.64,627.29-822.28,622.36Zm-5.55,24.45c0,.18,0,.37,0,.56,0,0,0,0-.1.14a10.06,10.06,0,0,1,.87-12,11.33,11.33,0,0,1,1.71-1.75,8.23,8.23,0,0,0,3.32-7.43c0-.63,0-1.26,0-1.88,2.25.58,3.43,2.84,2.88,5.51a14.2,14.2,0,0,1-3.34,6.27c-.52.62-1.11,1.2-1.66,1.8A13,13,0,0,0-827.83,646.81Zm7.32-3.81c-1.7,1.5-3.29,3.12-4.93,4.68l-.84.76c0-3.61.62-6.79,3.14-9.31a23.66,23.66,0,0,0,3.94-4.92,13.88,13.88,0,0,0,1.77-4.88,9.24,9.24,0,0,1,1.11,5.4A12,12,0,0,1-820.51,643Z" transform="translate(846.93 -612.38)"/></svg>